<?xml version="1.0" encoding="UTF-8"?>
<!DOCTYPE svg PUBLIC "-//W3C//DTD SVG 1.1//EN" "http://www.w3.org/Graphics/SVG/1.1/DTD/svg11.dtd">
<svg version="1.2" width="40.84mm" height="40.84mm" viewBox="959 959 4084 4084" preserveAspectRatio="xMidYMid" fill-rule="evenodd" stroke-width="28.222" stroke-linejoin="round" xmlns="http://www.w3.org/2000/svg" xmlns:ooo="http://xml.openoffice.org/svg/export" xmlns:xlink="http://www.w3.org/1999/xlink" xmlns:presentation="http://sun.com/xmlns/staroffice/presentation" xmlns:smil="http://www.w3.org/2001/SMIL20/" xmlns:anim="urn:oasis:names:tc:opendocument:xmlns:animation:1.0" xmlns:svg="urn:oasis:names:tc:opendocument:xmlns:svg-compatible:1.0" xml:space="preserve">
 <defs class="EmbeddedBulletChars">
  <g id="bullet-char-template-57356" transform="scale(0.00048828125,-0.00048828125)">
   <path d="M 580,1141 L 1163,571 580,0 -4,571 580,1141 Z"/>
  </g>
  <g id="bullet-char-template-57354" transform="scale(0.00048828125,-0.00048828125)">
   <path d="M 8,1128 L 1137,1128 1137,0 8,0 8,1128 Z"/>
  </g>
  <g id="bullet-char-template-10146" transform="scale(0.00048828125,-0.00048828125)">
   <path d="M 174,0 L 602,739 174,1481 1456,739 174,0 Z M 1358,739 L 309,1346 659,739 1358,739 Z"/>
  </g>
  <g id="bullet-char-template-10132" transform="scale(0.00048828125,-0.00048828125)">
   <path d="M 2015,739 L 1276,0 717,0 1260,543 174,543 174,936 1260,936 717,1481 1274,1481 2015,739 Z"/>
  </g>
  <g id="bullet-char-template-10007" transform="scale(0.00048828125,-0.00048828125)">
   <path d="M 0,-2 C -7,14 -16,27 -25,37 L 356,567 C 262,823 215,952 215,954 215,979 228,992 255,992 264,992 276,990 289,987 310,991 331,999 354,1012 L 381,999 492,748 772,1049 836,1024 860,1049 C 881,1039 901,1025 922,1006 886,937 835,863 770,784 769,783 710,716 594,584 L 774,223 C 774,196 753,168 711,139 L 727,119 C 717,90 699,76 672,76 641,76 570,178 457,381 L 164,-76 C 142,-110 111,-127 72,-127 30,-127 9,-110 8,-76 1,-67 -2,-52 -2,-32 -2,-23 -1,-13 0,-2 Z"/>
  </g>
  <g id="bullet-char-template-10004" transform="scale(0.00048828125,-0.00048828125)">
   <path d="M 285,-33 C 182,-33 111,30 74,156 52,228 41,333 41,471 41,549 55,616 82,672 116,743 169,778 240,778 293,778 328,747 346,684 L 369,508 C 377,444 397,411 428,410 L 1163,1116 C 1174,1127 1196,1133 1229,1133 1271,1133 1292,1118 1292,1087 L 1292,965 C 1292,929 1282,901 1262,881 L 442,47 C 390,-6 338,-33 285,-33 Z"/>
  </g>
  <g id="bullet-char-template-9679" transform="scale(0.00048828125,-0.00048828125)">
   <path d="M 813,0 C 632,0 489,54 383,161 276,268 223,411 223,592 223,773 276,916 383,1023 489,1130 632,1184 813,1184 992,1184 1136,1130 1245,1023 1353,916 1407,772 1407,592 1407,412 1353,268 1245,161 1136,54 992,0 813,0 Z"/>
  </g>
  <g id="bullet-char-template-8226" transform="scale(0.00048828125,-0.00048828125)">
   <path d="M 346,457 C 273,457 209,483 155,535 101,586 74,649 74,723 74,796 101,859 155,911 209,963 273,989 346,989 419,989 480,963 531,910 582,859 608,796 608,723 608,648 583,586 532,535 482,483 420,457 346,457 Z"/>
  </g>
  <g id="bullet-char-template-8211" transform="scale(0.00048828125,-0.00048828125)">
   <path d="M -4,459 L 1135,459 1135,606 -4,606 -4,459 Z"/>
  </g>
  <g id="bullet-char-template-61548" transform="scale(0.00048828125,-0.00048828125)">
   <path d="M 173,740 C 173,903 231,1043 346,1159 462,1274 601,1332 765,1332 928,1332 1067,1274 1183,1159 1299,1043 1357,903 1357,740 1357,577 1299,437 1183,322 1067,206 928,148 765,148 601,148 462,206 346,322 231,437 173,577 173,740 Z"/>
  </g>
 </defs>
 <g class="Page">
  <g class="com.sun.star.drawing.CustomShape">
   <g id="id3">
    <rect class="BoundingBox" stroke="none" fill="none" x="1959" y="1959" width="2084" height="2084"/>
    <g style="opacity: 0.498039215686275">
     <path fill="none" stroke="rgb(0,0,0)" stroke-width="81" stroke-linejoin="round" d="M 4001,3001 C 4001,3176 3955,3349 3867,3501 3779,3653 3653,3779 3501,3867 3349,3955 3176,4001 3001,4001 2825,4001 2652,3955 2500,3867 2348,3779 2222,3653 2134,3501 2046,3349 2000,3176 2000,3001 2000,2825 2046,2652 2134,2500 2222,2348 2348,2222 2500,2134 2652,2046 2825,2000 3000,2000 3176,2000 3349,2046 3501,2134 3653,2222 3779,2348 3867,2500 3955,2652 4001,2825 4001,3000 L 4001,3001 Z"/>
    </g>
   </g>
  </g>
  <g class="com.sun.star.drawing.CustomShape">
   <g id="id4">
    <rect class="BoundingBox" stroke="none" fill="none" x="2459" y="959" width="1084" height="1084"/>
    <g style="opacity: 0.498039215686275">
     <path fill="none" stroke="rgb(0,0,0)" stroke-width="81" stroke-linejoin="round" d="M 3501,1501 C 3501,1588 3478,1675 3434,1751 3390,1827 3327,1890 3251,1934 3175,1978 3088,2001 3001,2001 2913,2001 2826,1978 2750,1934 2674,1890 2611,1827 2567,1751 2523,1675 2500,1588 2500,1501 2500,1413 2523,1326 2567,1250 2611,1174 2674,1111 2750,1067 2826,1023 2913,1000 3001,1000 3088,1000 3175,1023 3251,1067 3327,1111 3390,1174 3434,1250 3478,1326 3501,1413 3501,1500 L 3501,1501 Z"/>
    </g>
   </g>
  </g>
  <g class="com.sun.star.drawing.CustomShape">
   <g id="id5">
    <rect class="BoundingBox" stroke="none" fill="none" x="959" y="2459" width="1084" height="1084"/>
    <g style="opacity: 0.498039215686275">
     <path fill="none" stroke="rgb(0,0,0)" stroke-width="81" stroke-linejoin="round" d="M 2001,3001 C 2001,3088 1978,3175 1934,3251 1890,3327 1827,3390 1751,3434 1675,3478 1588,3501 1501,3501 1413,3501 1326,3478 1250,3434 1174,3390 1111,3327 1067,3251 1023,3175 1000,3088 1000,3001 1000,2913 1023,2826 1067,2750 1111,2674 1174,2611 1250,2567 1326,2523 1413,2500 1500,2500 1588,2500 1675,2523 1751,2567 1827,2611 1890,2674 1934,2750 1978,2826 2001,2913 2001,3000 L 2001,3001 Z"/>
    </g>
   </g>
  </g>
  <g class="com.sun.star.drawing.CustomShape">
   <g id="id6">
    <rect class="BoundingBox" stroke="none" fill="none" x="2459" y="3959" width="1084" height="1084"/>
    <g style="opacity: 0.498039215686275">
     <path fill="none" stroke="rgb(0,0,0)" stroke-width="81" stroke-linejoin="round" d="M 3501,4501 C 3501,4588 3478,4675 3434,4751 3390,4827 3327,4890 3251,4934 3175,4978 3088,5001 3001,5001 2913,5001 2826,4978 2750,4934 2674,4890 2611,4827 2567,4751 2523,4675 2500,4588 2500,4501 2500,4413 2523,4326 2567,4250 2611,4174 2674,4111 2750,4067 2826,4023 2913,4000 3001,4000 3088,4000 3175,4023 3251,4067 3327,4111 3390,4174 3434,4250 3478,4326 3501,4413 3501,4501 Z"/>
    </g>
   </g>
  </g>
  <g class="com.sun.star.drawing.CustomShape">
   <g id="id7">
    <rect class="BoundingBox" stroke="none" fill="none" x="3959" y="2459" width="1084" height="1084"/>
    <g style="opacity: 0.498039215686275">
     <path fill="none" stroke="rgb(0,0,0)" stroke-width="81" stroke-linejoin="round" d="M 5001,3001 C 5001,3088 4978,3175 4934,3251 4890,3327 4827,3390 4751,3434 4675,3478 4588,3501 4501,3501 4413,3501 4326,3478 4250,3434 4174,3390 4111,3327 4067,3251 4023,3175 4000,3088 4000,3001 4000,2913 4023,2826 4067,2750 4111,2674 4174,2611 4250,2567 4326,2523 4413,2500 4501,2500 4588,2500 4675,2523 4751,2567 4827,2611 4890,2674 4934,2750 4978,2826 5001,2913 5001,3000 L 5001,3001 Z"/>
    </g>
   </g>
  </g>
  <g class="com.sun.star.drawing.CustomShape">
   <g id="id8">
    <rect class="BoundingBox" stroke="none" fill="none" x="1459" y="2460" width="3084" height="1084"/>
    <g style="opacity: 0.498039215686275">
     <path fill="none" stroke="rgb(0,0,0)" stroke-width="81" stroke-linejoin="round" d="M 4501,3001 C 4501,3089 4432,3176 4300,3252 4168,3328 3979,3391 3751,3435 3523,3479 3264,3502 3001,3502 2737,3502 2478,3479 2250,3435 2022,3391 1833,3328 1701,3252 1569,3176 1500,3089 1500,3002 1500,2914 1569,2827 1701,2751 1833,2675 2022,2612 2250,2568 2478,2524 2737,2501 3000,2501 3264,2501 3523,2524 3751,2568 3979,2612 4168,2675 4300,2751 4432,2827 4501,2914 4501,3001 L 4501,3001 Z"/>
    </g>
   </g>
  </g>
  <g class="com.sun.star.drawing.CustomShape">
   <g id="id9">
    <rect class="BoundingBox" stroke="none" fill="none" x="1460" y="1459" width="3084" height="3184"/>
    <g style="opacity: 0.498039215686275">
     <path fill="none" stroke="rgb(0,0,0)" stroke-width="81" stroke-linejoin="round" d="M 4502,3051 C 4502,3323 4433,3590 4301,3826 4169,4061 3980,4257 3752,4393 3524,4529 3265,4601 3002,4601 2738,4601 2479,4529 2251,4393 2023,4257 1834,4061 1702,3826 1570,3590 1501,3323 1501,3051 1501,2778 1570,2511 1702,2275 1834,2040 2023,1844 2251,1708 2479,1572 2738,1500 3001,1500 3265,1500 3524,1572 3752,1708 3980,1844 4169,2040 4301,2275 4433,2511 4502,2778 4502,3050 L 4502,3051 Z"/>
    </g>
   </g>
  </g>
  <g class="com.sun.star.drawing.CustomShape">
   <g id="id10">
    <rect class="BoundingBox" stroke="none" fill="none" x="2459" y="1460" width="1084" height="3184"/>
    <g style="opacity: 0.498039215686275">
     <path fill="none" stroke="rgb(0,0,0)" stroke-width="81" stroke-linejoin="round" d="M 3501,3051 C 3501,3324 3478,3591 3434,3827 3390,4062 3327,4258 3251,4394 3175,4530 3088,4602 3001,4602 2913,4602 2826,4530 2750,4394 2674,4258 2611,4062 2567,3827 2523,3591 2500,3324 2500,3052 2500,2779 2523,2512 2567,2276 2611,2041 2674,1845 2750,1709 2826,1573 2913,1501 3000,1501 3088,1501 3175,1573 3251,1709 3327,1845 3390,2041 3434,2276 3478,2512 3501,2779 3501,3051 L 3501,3051 Z"/>
    </g>
   </g>
  </g>
 </g>
</svg>